<svg width="70" height="70" viewBox="0 0 70 70" fill="none" xmlns="http://www.w3.org/2000/svg">
<path d="M36.3235 0H32.9727V69.2961H36.3235V0Z" fill="white"/>
<path d="M69.2961 32.9724H0V36.3233H69.2961V32.9724Z" fill="white"/>
<path d="M11.3264 8.96116L8.95703 11.3306L57.9563 60.3298L60.3257 57.9604L11.3264 8.96116Z" fill="white"/>
<path d="M57.9563 8.96068L8.95703 57.96L11.3264 60.3294L60.3257 11.3301L57.9563 8.96068Z" fill="white"/>
<path d="M3.20276 20.0347L1.93848 23.1379L66.1136 49.2834L67.3779 46.1801L3.20276 20.0347Z" fill="white"/>
<path d="M46.1796 1.94278L20.0342 66.1179L23.1374 67.3822L49.2829 3.20707L46.1796 1.94278Z" fill="white"/>
<path d="M66.1893 20.1514L1.90332 46.0266L3.15454 49.1352L67.4405 23.26L66.1893 20.1514Z" fill="white"/>
<path d="M23.2463 1.90464L20.1377 3.15552L46.0059 67.4415L49.1145 66.1906L23.2463 1.90464Z" fill="white"/>
</svg>
