<svg width="70" height="70" viewBox="0 0 70 70" fill="none" xmlns="http://www.w3.org/2000/svg">
<path d="M36.3235 0H32.9727V69.2961H36.3235V0Z" fill="white"/>
<path d="M69.2961 32.9727H0V36.3235H69.2961V32.9727Z" fill="white"/>
<path d="M11.3264 8.96116L8.95703 11.3306L57.9563 60.3298L60.3257 57.9604L11.3264 8.96116Z" fill="white"/>
<path d="M57.9563 8.96068L8.95703 57.96L11.3264 60.3294L60.3257 11.3301L57.9563 8.96068Z" fill="white"/>
<path d="M3.20276 20.0344L1.93848 23.1377L66.1136 49.2831L67.3779 46.1799L3.20276 20.0344Z" fill="white"/>
<path d="M46.1796 1.94254L20.0342 66.1177L23.1374 67.382L49.2829 3.20682L46.1796 1.94254Z" fill="white"/>
<path d="M66.1893 20.1512L1.90332 46.0264L3.15454 49.135L67.4405 23.2598L66.1893 20.1512Z" fill="white"/>
<path d="M23.2463 1.90439L20.1377 3.15527L46.0059 67.4413L49.1145 66.1904L23.2463 1.90439Z" fill="white"/>
</svg>
