<svg width="21" height="21" viewBox="0 0 21 21" fill="none" xmlns="http://www.w3.org/2000/svg">
<g clip-path="url(#clip0_3016_124)">
<path d="M10.5 0.788086C4.9772 0.788086 0.5 5.26529 0.5 10.7881C0.5 15.4777 3.7288 19.4129 8.0844 20.4937V13.8441H6.0224V10.7881H8.0844V9.47129C8.0844 6.06769 9.6248 4.49009 12.9664 4.49009C13.6 4.49009 14.6932 4.61449 15.1404 4.73849V7.50849C14.9044 7.48369 14.4944 7.47129 13.9852 7.47129C12.3456 7.47129 11.712 8.09249 11.712 9.70729V10.7881H14.9784L14.4172 13.8441H11.712V20.7149C16.6636 20.1169 20.5004 15.9009 20.5004 10.7881C20.5 5.26529 16.0228 0.788086 10.5 0.788086Z" fill="#BDC1C8"/>
</g>
<defs>
<clipPath id="clip0_3016_124">
<rect width="20" height="20" fill="white" transform="translate(0.5 0.788086)"/>
</clipPath>
</defs>
</svg>
