<svg width="21" height="21" viewBox="0 0 21 21" fill="none" xmlns="http://www.w3.org/2000/svg">
<g clip-path="url(#clip0_3016_132)">
<path d="M20.3008 6.78809C20.3008 6.78809 20.1055 5.40918 19.5039 4.80371C18.7422 4.00684 17.8906 4.00293 17.5 3.95605C14.7031 3.75293 10.5039 3.75293 10.5039 3.75293H10.4961C10.4961 3.75293 6.29688 3.75293 3.5 3.95605C3.10938 4.00293 2.25781 4.00684 1.49609 4.80371C0.894531 5.40918 0.703125 6.78809 0.703125 6.78809C0.703125 6.78809 0.5 8.40918 0.5 10.0264V11.542C0.5 13.1592 0.699219 14.7803 0.699219 14.7803C0.699219 14.7803 0.894531 16.1592 1.49219 16.7646C2.25391 17.5615 3.25391 17.5342 3.69922 17.6201C5.30078 17.7725 10.5 17.8193 10.5 17.8193C10.5 17.8193 14.7031 17.8115 17.5 17.6123C17.8906 17.5654 18.7422 17.5615 19.5039 16.7646C20.1055 16.1592 20.3008 14.7803 20.3008 14.7803C20.3008 14.7803 20.5 13.1631 20.5 11.542V10.0264C20.5 8.40918 20.3008 6.78809 20.3008 6.78809ZM8.43359 13.3818V7.76074L13.8359 10.5811L8.43359 13.3818Z" fill="#BDC1C8"/>
</g>
<defs>
<clipPath id="clip0_3016_132">
<rect width="20" height="20" fill="white" transform="translate(0.5 0.788086)"/>
</clipPath>
</defs>
</svg>
