<svg width="21" height="21" viewBox="0 0 21 21" fill="none" xmlns="http://www.w3.org/2000/svg">
<g clip-path="url(#clip0_3016_128)">
<path d="M10.5 2.58887C13.1719 2.58887 13.4883 2.60059 14.5391 2.64746C15.5156 2.69043 16.043 2.85449 16.3945 2.99121C16.8594 3.1709 17.1953 3.38965 17.543 3.7373C17.8945 4.08887 18.1094 4.4209 18.2891 4.88574C18.4258 5.23731 18.5898 5.76855 18.6328 6.74121C18.6797 7.7959 18.6914 8.11231 18.6914 10.7803C18.6914 13.4521 18.6797 13.7686 18.6328 14.8193C18.5898 15.7959 18.4258 16.3232 18.2891 16.6748C18.1094 17.1397 17.8906 17.4756 17.543 17.8232C17.1914 18.1748 16.8594 18.3897 16.3945 18.5693C16.043 18.7061 15.5117 18.8701 14.5391 18.9131C13.4844 18.96 13.168 18.9717 10.5 18.9717C7.82813 18.9717 7.51172 18.96 6.46094 18.9131C5.48438 18.8701 4.95703 18.7061 4.60547 18.5693C4.14063 18.3897 3.80469 18.1709 3.45703 17.8232C3.10547 17.4717 2.89063 17.1397 2.71094 16.6748C2.57422 16.3232 2.41016 15.792 2.36719 14.8193C2.32031 13.7647 2.30859 13.4482 2.30859 10.7803C2.30859 8.1084 2.32031 7.79199 2.36719 6.74121C2.41016 5.76465 2.57422 5.23731 2.71094 4.88574C2.89063 4.4209 3.10938 4.08496 3.45703 3.7373C3.80859 3.38574 4.14063 3.1709 4.60547 2.99121C4.95703 2.85449 5.48828 2.69043 6.46094 2.64746C7.51172 2.60059 7.82813 2.58887 10.5 2.58887ZM10.5 0.788086C7.78516 0.788086 7.44531 0.799805 6.37891 0.84668C5.31641 0.893555 4.58594 1.06543 3.95313 1.31152C3.29297 1.56934 2.73438 1.90918 2.17969 2.46777C1.62109 3.02246 1.28125 3.58106 1.02344 4.23731C0.777344 4.87402 0.605469 5.60059 0.558594 6.66309C0.511719 7.7334 0.5 8.07324 0.5 10.7881C0.5 13.5029 0.511719 13.8428 0.558594 14.9092C0.605469 15.9717 0.777344 16.7021 1.02344 17.335C1.28125 17.9951 1.62109 18.5537 2.17969 19.1084C2.73438 19.6631 3.29297 20.0068 3.94922 20.2607C4.58594 20.5068 5.3125 20.6787 6.375 20.7256C7.44141 20.7725 7.78125 20.7842 10.4961 20.7842C13.2109 20.7842 13.5508 20.7725 14.6172 20.7256C15.6797 20.6787 16.4102 20.5068 17.043 20.2607C17.6992 20.0068 18.2578 19.6631 18.8125 19.1084C19.3672 18.5537 19.7109 17.9951 19.9648 17.3389C20.2109 16.7022 20.3828 15.9756 20.4297 14.9131C20.4766 13.8467 20.4883 13.5068 20.4883 10.792C20.4883 8.07715 20.4766 7.73731 20.4297 6.6709C20.3828 5.6084 20.2109 4.87793 19.9648 4.24512C19.7188 3.58105 19.3789 3.02246 18.8203 2.46777C18.2656 1.91309 17.707 1.56934 17.0508 1.31543C16.4141 1.06934 15.6875 0.897461 14.625 0.850586C13.5547 0.799805 13.2148 0.788086 10.5 0.788086Z" fill="#BDC1C8"/>
<path d="M10.5 5.65137C7.66406 5.65137 5.36328 7.95215 5.36328 10.7881C5.36328 13.624 7.66406 15.9248 10.5 15.9248C13.3359 15.9248 15.6367 13.624 15.6367 10.7881C15.6367 7.95215 13.3359 5.65137 10.5 5.65137ZM10.5 14.1201C8.66016 14.1201 7.16797 12.6279 7.16797 10.7881C7.16797 8.94824 8.66016 7.45605 10.5 7.45605C12.3398 7.45605 13.832 8.94824 13.832 10.7881C13.832 12.6279 12.3398 14.1201 10.5 14.1201Z" fill="#BDC1C8"/>
<path d="M17.0391 5.44824C17.0391 6.11231 16.5 6.64746 15.8398 6.64746C15.1758 6.64746 14.6406 6.1084 14.6406 5.44824C14.6406 4.78418 15.1797 4.24902 15.8398 4.24902C16.5 4.24902 17.0391 4.78809 17.0391 5.44824Z" fill="#BDC1C8"/>
</g>
<defs>
<clipPath id="clip0_3016_128">
<rect width="20" height="20" fill="white" transform="translate(0.5 0.788086)"/>
</clipPath>
</defs>
</svg>
