<svg width="21" height="21" viewBox="0 0 21 21" fill="none" xmlns="http://www.w3.org/2000/svg">
<g clip-path="url(#clip0_3016_134)">
<path d="M14.7272 0.788086H11.3566V14.4113C11.3566 16.0345 10.0602 17.3678 8.44697 17.3678C6.83369 17.3678 5.53732 16.0345 5.53732 14.4113C5.53732 12.8171 6.80489 11.5127 8.36056 11.4548V8.03448C4.93235 8.09242 2.16675 10.904 2.16675 14.4113C2.16675 17.9475 4.98996 20.7881 8.47579 20.7881C11.9616 20.7881 14.7848 17.9185 14.7848 14.4113V7.42575C16.0524 8.35331 17.608 8.90403 19.2501 8.93303V5.51272C16.715 5.42577 14.7272 3.33881 14.7272 0.788086Z" fill="#BDC1C8"/>
</g>
<defs>
<clipPath id="clip0_3016_134">
<rect width="20" height="20" fill="white" transform="translate(0.5 0.788086)"/>
</clipPath>
</defs>
</svg>
